<svg id="Layer_1" data-name="Layer 1" xmlns="http://www.w3.org/2000/svg" viewBox="0 0 291.19 80.49"><defs><style>.cls-1{fill:#fff;}</style></defs><title>website-logo</title><g id="Template"><path class="cls-1" d="M24.24,67.86c-1.55,3-4.58,5-9.54,5C5.46,72.86.17,66.43.17,57.65v-.34C.17,48.53,6.05,42,14.62,42c3.82,0,7,1.18,8.7,3.91V42.45h3.32v9.07H23.57c-1.18-4.7-4.33-6.64-8.78-6.64C7.94,44.88,4,49.88,4,57.27v.34c0,7.48,3.7,12.31,10.75,12.31,6.76,0,9.58-4.66,9.58-9.58H15.37v-3H27.55V72.48H24.23V67.86Zm7.39-6.13V61.4c0-6.64,4.24-11.26,10.29-11.26,5.08,0,9.87,3.07,9.87,10.92v1.13H35.24c.17,5,2.56,7.77,7.06,7.77,3.42,0,5.42-1.26,5.84-3.82h3.49c-.76,4.41-4.41,6.72-9.37,6.72C36,72.86,31.63,68.5,31.63,61.73Zm16.59-2.35c-.34-4.54-2.69-6.38-6.3-6.38s-6,2.44-6.55,6.34Zm6.3,2.31v-.34c0-6.6,4.58-11.21,10.8-11.21s10.79,4.58,10.79,11.17v.34c0,6.64-4.58,11.21-10.84,11.21S54.52,68.12,54.52,61.69Zm18,0V61.4c0-5.08-2.8-8.4-7.2-8.4s-7.18,3.28-7.18,8.32v.34c0,5,2.73,8.28,7.18,8.28s7.18-3.29,7.18-8.25Zm6.84,12.06h3.57c.5,2.52,2.61,3.82,6.34,3.82,4.33,0,7.06-2.06,7.06-6.76V67.62a9.11,9.11,0,0,1-7.43,4.16c-5.75,0-10-4.37-10-10.42v-.29c0-6,4.2-10.92,10.25-10.92a7.84,7.84,0,0,1,7.18,3.91V50.53h6.47v2.86h-3V71c0,6.38-4.37,9.49-10.5,9.49-6.52,0-9.37-3-10-6.74ZM96.44,61.1v-.29c0-4.92-2.69-7.77-7-7.77s-7,3.23-7,7.86v.34c0,4.79,3.07,7.64,6.76,7.64C93.33,68.87,96.44,66,96.44,61.1Zm8.06,11.39V69.76h3.07V53.37h-3.15V50.51h6.64v4.2c1-2.31,3.28-4.54,7.9-4.58v3.44c-4.79,0-7.9,1.47-7.9,6.85v9.33h3.36v2.73H104.5Zm23.35.37c-4,0-7.14-2-7.14-6.47,0-5.12,5.29-6.8,10.84-6.8h3.07V58c0-3.7-1.47-5-4.62-5-2.94,0-4.54,1.09-4.87,4h-3.49c.42-5.17,4.37-6.85,8.53-6.85s7.94,1.51,7.94,7.86V69.75h2.94v2.73h-6.43v-3A7.42,7.42,0,0,1,127.85,72.86Zm6.76-8.06V62.07h-2.89c-4.33,0-7.48,1.13-7.48,4.33,0,2,1,3.7,4,3.7C131.8,70.09,134.61,68.2,134.61,64.8Zm7.86,15.33V77.4h3.07v-24h-3.15V50.51H149v3.87a8.77,8.77,0,0,1,7.43-4.24c5.75,0,10,4.2,10,11v.34c0,6.72-4,11.34-10,11.34A8.21,8.21,0,0,1,149,68.75v8.61h3.44v2.73h-10Zm20.37-18.44v-.34c0-5.54-3.07-8.32-6.76-8.32-4.07,0-7.18,2.73-7.18,8.32v.34c0,5.54,3,8.28,7.23,8.28S162.84,67,162.84,61.69Zm5.88,10.8V69.76h3.07V42.87h-3.07V40h6.64V54.2a7.55,7.55,0,0,1,6.89-4.07c4.41,0,7.65,2.35,7.65,8.7V69.76H193v2.73h-9.7V69.76h3.15V58.58c0-3.7-1.68-5.42-5.08-5.42a5.7,5.7,0,0,0-6,5.37,5,5,0,0,0,0,.55V69.75h3.15v2.73h-9.77ZM213,53.37l-11,26.76h-5.59V77.4h3.37l3-7.18-7.35-16.84h-2.75V50.52h9.66v2.86h-3.19l5.5,12.9,5-12.9h-3.32V50.52h9.45v2.86H213ZM238.19.51h3.64l8.69,20h-5l-1.72-4.23H236l-1.66,4.23h-4.85Zm1.69,5.81-2.43,6.2h4.88Zm-27-5.81h7.45a19,19,0,0,1,2.61.18,7.22,7.22,0,0,1,2.35.73A4.52,4.52,0,0,1,226.93,3a4.71,4.71,0,0,1,.65,2.62,4.21,4.21,0,0,1-.94,2.81,5.23,5.23,0,0,1-2.5,1.59v0a5.64,5.64,0,0,1,1.79.55,4.57,4.57,0,0,1,1.38,1A4.47,4.47,0,0,1,228.2,13a5.07,5.07,0,0,1,.31,1.81,4.89,4.89,0,0,1-.68,2.64,5.3,5.3,0,0,1-1.75,1.71,7.45,7.45,0,0,1-2.41.93,12.61,12.61,0,0,1-2.67.28h-8.18V.51Zm4.4,8h3.19a4.79,4.79,0,0,0,1-.11,2.59,2.59,0,0,0,.89-.37,1.87,1.87,0,0,0,.63-.68,2,2,0,0,0,.24-1,1.86,1.86,0,0,0-.27-1,1.9,1.9,0,0,0-.69-.63,3.16,3.16,0,0,0-1-.32,5.56,5.56,0,0,0-1-.1h-3Zm0,8.26h4a4.79,4.79,0,0,0,1-.11,2.68,2.68,0,0,0,.94-.39,2.29,2.29,0,0,0,.69-.73,2.14,2.14,0,0,0,.27-1.1,1.79,1.79,0,0,0-.35-1.14,2.23,2.23,0,0,0-.89-.66,4.62,4.62,0,0,0-1.16-.31,8.92,8.92,0,0,0-1.16-.08h-3.4v4.52ZM252.61.51h7.73a14,14,0,0,1,2.89.3,7,7,0,0,1,2.4,1,4.9,4.9,0,0,1,1.64,1.86,6.39,6.39,0,0,1,.61,2.92,5.88,5.88,0,0,1-1.1,3.6,5,5,0,0,1-3.22,1.88l5.08,8.43h-5.27l-4.17-8H257v8h-4.4V.51ZM257,8.77h3.85a4.14,4.14,0,0,0,1.2-.25,2.08,2.08,0,0,0,.89-.66,2,2,0,0,0,.35-1.27A2.05,2.05,0,0,0,263,5.38a2.11,2.11,0,0,0-.79-.69,3.31,3.31,0,0,0-1.1-.32,8.2,8.2,0,0,0-1.21-.08H257V8.77ZM178.72.51h3.64l8.69,20h-5l-1.72-4.23h-7.76l-1.66,4.23h-4.85Zm1.69,5.81L178,12.52h4.88ZM278.86.51h3.64l8.69,20h-5l-1.72-4.23h-7.75l-1.66,4.23h-4.85Zm1.69,5.81-2.43,6.2H283ZM153.41.5h7.45a19,19,0,0,1,2.61.18,7.22,7.22,0,0,1,2.35.73A4.45,4.45,0,0,1,167.51,3a4.71,4.71,0,0,1,.65,2.62,4.21,4.21,0,0,1-.94,2.81,5.19,5.19,0,0,1-2.5,1.57h0a5.64,5.64,0,0,1,1.79.55,4.57,4.57,0,0,1,1.38,1,4.47,4.47,0,0,1,.89,1.48,5.07,5.07,0,0,1,.31,1.81,4.89,4.89,0,0,1-.68,2.64,5.3,5.3,0,0,1-1.75,1.71,7.78,7.78,0,0,1-2.41.93,12.61,12.61,0,0,1-2.67.28H153.4V.5Zm4.4,8H161a4.79,4.79,0,0,0,1-.11,2.59,2.59,0,0,0,.89-.37,1.87,1.87,0,0,0,.63-.68,2,2,0,0,0,.24-1,1.86,1.86,0,0,0-.27-1,1.9,1.9,0,0,0-.69-.63,3.16,3.16,0,0,0-1-.32,5.56,5.56,0,0,0-1-.1h-3Zm0,8.26h3.91a4.79,4.79,0,0,0,1-.11,2.68,2.68,0,0,0,.94-.39,2.29,2.29,0,0,0,.69-.73,2.14,2.14,0,0,0,.27-1.1,1.79,1.79,0,0,0-.35-1.14,2.23,2.23,0,0,0-.89-.66,4.62,4.62,0,0,0-1.16-.31,8.92,8.92,0,0,0-1.16-.08h-3.33v4.52ZM193.18.5h7.73a14,14,0,0,1,2.89.3,7,7,0,0,1,2.4,1,4.9,4.9,0,0,1,1.64,1.86,6.39,6.39,0,0,1,.61,2.92,5.88,5.88,0,0,1-1.1,3.6,5,5,0,0,1-3.22,1.88l5.08,8.43h-5.27l-4.17-8H197.6v8h-4.4V.5Zm4.4,8.27h3.85a4.14,4.14,0,0,0,1.2-.25,2.08,2.08,0,0,0,.89-.66,2,2,0,0,0,.35-1.27,2.05,2.05,0,0,0-.31-1.21,2.11,2.11,0,0,0-.79-.69,3.31,3.31,0,0,0-1.1-.32,8.2,8.2,0,0,0-1.21-.08h-2.88V8.77ZM73.41.51h3.64l8.69,20h-5L79,16.28H71.3l-1.66,4.23H64.79ZM75.1,6.32l-2.38,6.2H77.6ZM132.72.51h3.64l8.69,20h-5l-1.72-4.23h-7.76l-1.66,4.23h-4.85Zm1.7,5.81L132,12.52h4.88ZM88.17.5h6l8.49,13.88h.06V.5h4.4v20h-5.75L92.63,6.26h-.06V20.47h-4.4Zm27.55,3.9h-5.51V.5H126V4.4h-5.88V20.48h-4.4ZM9.53,20.79c-4.64,0-7.27-2.71-7.27-7.64V2.43H0V.51H7.27V2.43H4.72V12.87c0,4.24,1.5,5.88,4.86,5.88s5.14-1.3,5.14-6.25V2.43H12.19V.51h7.27V2.43H17.2V12.84C17.19,17.76,14.72,20.79,9.53,20.79Zm27.44-7c-.51,3.28-2.8,5-6.11,5-4.36,0-7-3.11-7-8.26V10.3c0-5.09,2.8-8.34,7-8.34,3.08,0,5.18,1.3,6,4.67h2.06V.52h-2.2V2.73C35.72.85,33.49,0,31,0c-5.57,0-9.59,4.33-9.59,10.32v.23c0,6.22,3.59,10.24,9.45,10.24,4.45,0,7.63-2.22,8.41-6.72Zm20.4-5.28C55,7.88,53.08,7.25,53.08,5.79a2.41,2.41,0,0,1,2.53-2.3h.16a5.27,5.27,0,0,1,4.5,2.08l2.8-2.44C61.3.42,58.05,0,56.27,0c-4.44,0-7.55,2.57-7.55,6.24s3.34,5.07,6.63,6c2.78.78,3.88,1.16,3.88,2.84,0,1.33-1.18,2.16-3.09,2.16a6.38,6.38,0,0,1-5.22-2.72l-3,2.58c1.53,2.45,4.18,3.69,7.87,3.69,4.6,0,7.82-2.65,7.82-6.46s-3.23-5-6.24-5.78Z"/></g></svg>